<svg id="圖層_1" data-name="圖層 1" xmlns="http://www.w3.org/2000/svg" viewBox="0 0 459.4 445.02"><defs><style>.cls-1{fill:#e27c19;}.cls-2{fill:#f5f6f2;}.cls-3{fill:#214791;}</style></defs><title>未命名-1</title><path class="cls-1" d="M230.39,445.62q-113.28,0-226.56.07c-2.62,0-3.14-.49-3.14-3Q.81,223.18.69,3.71c0-2.54.52-3,3.14-3Q230.39.79,457,.67c2.62,0,3.13.5,3.13,3q-.12,219.47,0,439c0,2.54-.51,3-3.13,3Q343.67,445.57,230.39,445.62ZM355.8,224.35l.55-.54c2.65.35,4.67-.74,6.54-2.46,2.27-2.08,3.78-4.81,6.41-6.63,1.69-1.18,4.12-1.3,5.18-3.36,1-.85,2-1.72,3-2.56,1.37-1.13,3.31-1.86,3-4.13,3.62,2.2,5-.13,6.28-2.84,2-1.25,4-2.46,5.92-3.74a3,3,0,0,0,1.61-3.4c1.5-.45,3.63-.3,2.86-2.87,3.87-1.19,7.95-2.07,9.69-6.32,1.21,1.12,2.45,1.29,2.63-.61a4.42,4.42,0,0,1,2.48-3.77,2.57,2.57,0,0,0,1-3.29c-.76-1.84.21-2.24,1.53-1.52,4.27,2.31,6.93.88,8.23-3.11-3.29-.91-6.88-.12-10.18,1.45a65.53,65.53,0,0,1-12.18,4.15c-3.94,1-7.75,2.16-10.46,5.57a61.18,61.18,0,0,1-7.43,7.84A35.08,35.08,0,0,1,361.33,201c-1.63.11-3.45,0-3.87,2.15l-.85.56a2,2,0,0,0-2.91.63,23.31,23.31,0,0,0-2.26,5.76c-1.07,4.61-2.46,9-5.87,12.59a3.57,3.57,0,0,0-.91,3.41c-.75,2-1.56,4-2.22,6.09-.21.65-.28,1.62.58,1.9.45.15,1.14-.31,1.69-.56a2.89,2.89,0,0,0,1.75-2.63c.08-1,.56-2.39,1.64-2.05,2.29.72,3.35-1.36,5.13-1.63l.76-2.11c.63.36.68-.49,1.13-.51.19.42.25,1,.95.66A4.12,4.12,0,0,0,355.8,224.35Zm70.42-92.14c.15-7.22-1.56-11.72-4.65-15.61-10.23-12.89-20.5-25.74-30.94-38.47-8.15-9.92-21.51-11.4-31.95-3.78-4.37,3.18-8.67,6.45-13,9.69-21.2,15.87-42.16,32-63.56,47.67-7.62,5.56-11.4,13.07-9.34,22.61.22,1,.43,1.93-.78,2.56-1.4.71-2.16-.26-2.94-1-4.44-4.2-4.43-4.21-9.23-.41a18.25,18.25,0,0,0-1.77,1.38c-1.68,1.65-3.24,1.9-4.64-.28-1.17-1.8-2.35-1.72-4-.44-8.86,6.74-17.8,13.39-26.74,20.05-1.75,1.31-2.69,2.6-.78,4.49,1.53,1.52,1.06,2.67-.63,3.92-7.84,5.81-15.6,11.72-23.39,17.61-1.37,1-2.72,1.38-3.84-.24-1.73-2.49-3.45-1.73-5.39-.23-4,3.07-8,6-12,9.06q-7.19,5.44-14.35,10.9c-1.43,1.1-2.41,2.4-.62,3.93,2.66,2.28.29,3.34-1.15,4.51s-3.11,3.07-5,.35c-1.3-1.9-2.59-1.77-4.4-.39-10.36,7.87-20.86,15.56-31.21,23.45-16,12.2-31.94,24.55-47.95,36.77q-17.82,13.59-35.82,27c-2.29,1.7-2.74,2.93-.84,5.27q27.17,33.52,54.12,67.2c1.44,1.81,2.62,2,4.36.67,9.6-7.29,19.2-14.59,28.86-21.81,1.64-1.22,1.74-2.31.35-3.59-2.64-2.41-1.76-4,1-5.71,5.73-3.64,10.1-8.44,10.75-15.36.3-3.17,1.42-4.92,4.71-5.54,2.81-.53,4.95-4.41,7.52-3.26s4.07,4.27,5.78,6.71c1.57,2.24,2.89,2.43,5.13.7,10.37-8,20.84-15.92,31.32-23.81,7.2-5.41,10.75-12.27,9.46-21.21-.15-1-.67-2.25.77-2.92,1.67-.76,2.3.63,3.06,1.49,3.2,3.58,3.11,3.52,7,.53,10-7.6,20-15.11,30-22.69,1.9-1.44,3.63-2.36,5.3.27.93,1.47,2.26,1.49,3.57.5q16.46-12.5,32.9-25c1.49-1.13,1.95-2.13.49-3.6-1.69-1.69-1.36-3,.62-4.49q14.5-10.76,28.82-21.76c1.76-1.35,4.36-2.21,4.95-4.39.5-1.89-1.82-3-2.8-4.57a2,2,0,0,1-.12-2.42,1.81,1.81,0,0,1,2.38-.42c.82.34,1.68.59,2.53.85,7.45,2.34,14.54,2,21-2.8q8.46-6.27,16.88-12.59,31-23.35,61.94-46.75C423.48,142.55,426,136.77,426.22,132.21Zm-255.8,67.42c6.64,3,11.65,3.57,16-2.46a10.88,10.88,0,0,1,2.32-1.89q28.33-21.34,56.67-42.69c.76-.58,2.14-1,2-2.07-.51-3,1.5-2.64,3.4-2.82a11.67,11.67,0,0,0,10.39-9.78c1.32-8.9-4-18.75-12.24-22.81-9.57-4.7-19.62-1.8-21.31,8.94-.26,1.67-1.1,2.16-2.58,1.76a7.38,7.38,0,0,0-6.21,1.06,109.84,109.84,0,0,0-10,7.68c-1.74,1.51-2.61,1.6-3.58-.54a12.19,12.19,0,0,0-7.27-6.62c-5.08-1.85-11,1.43-10.57,6.58.43,4.86-2,7-5.48,9.4-1.92,1.32-3.3,1.82-4.7-.25s-2.83-2-4.7-.49c-2.45,1.93-5.07,3.67-7.64,5.47-2.26,1.59-2.83,3.26-.72,5.48,1.71,1.8,3,4,4.77,5.72,2.5,2.45,1.67,4-.83,5.83-10,7.32-19.85,14.77-29.73,22.21a4.9,4.9,0,0,1-5.48.79c-11.91-4.73-22.16,2.08-22.06,14.45.1,11.83,10.53,24.81,22.42,27.89,10.44,2.71,19.07-3.26,19.58-13.72a80.37,80.37,0,0,0-.53-8.82c3,2,5.65,3.79,8.29,5.63.87.6,1.8,1.31,2.76.64,3-2.07,6.18-4,8.65-6.53,1.7-1.77-1-3.81-1.25-5.83C170.69,201.25,170.58,200.67,170.42,199.63Z" transform="translate(-0.69 -0.67)"/><path class="cls-2" d="M426.22,132.21c-.22,4.56-2.74,10.34-8.3,14.55Q387,170.19,356,193.51q-8.42,6.33-16.88,12.59c-6.44,4.77-13.53,5.14-21,2.8-.85-.26-1.71-.51-2.53-.85a1.81,1.81,0,0,0-2.38.42,2,2,0,0,0,.12,2.42c1,1.53,3.3,2.68,2.8,4.57-.59,2.18-3.19,3-4.95,4.39q-14.31,11-28.82,21.76c-2,1.47-2.31,2.8-.62,4.49,1.46,1.47,1,2.47-.49,3.6q-16.49,12.48-32.9,25c-1.31,1-2.64,1-3.57-.5-1.67-2.63-3.4-1.71-5.3-.27-10,7.58-20,15.09-30,22.69-3.91,3-3.82,3.05-7-.53-.76-.86-1.39-2.25-3.06-1.49-1.44.67-.92,1.89-.77,2.92,1.29,8.94-2.26,15.8-9.46,21.21-10.48,7.89-21,15.79-31.32,23.81-2.24,1.73-3.56,1.54-5.13-.7-1.71-2.44-3.31-5.6-5.78-6.71s-4.71,2.73-7.52,3.26c-3.29.62-4.41,2.37-4.71,5.54-.65,6.92-5,11.72-10.75,15.36-2.73,1.73-3.61,3.3-1,5.71,1.39,1.28,1.29,2.37-.35,3.59-9.66,7.22-19.26,14.52-28.86,21.81-1.74,1.32-2.92,1.14-4.36-.67q-27-33.66-54.12-67.2c-1.9-2.34-1.45-3.57.84-5.27q18-13.36,35.82-27c16-12.22,31.92-24.57,48-36.77,10.35-7.89,20.85-15.58,31.21-23.45,1.81-1.38,3.1-1.51,4.4.39,1.86,2.72,3.47.86,5-.35s3.81-2.23,1.15-4.51c-1.79-1.53-.81-2.83.62-3.93q7.15-5.48,14.35-10.9c4-3,8-6,12-9.06,1.94-1.5,3.66-2.26,5.39.23,1.12,1.62,2.47,1.27,3.84.24,7.79-5.89,15.55-11.8,23.39-17.61,1.69-1.25,2.16-2.4.63-3.92-1.91-1.89-1-3.18.78-4.49,8.94-6.66,17.88-13.31,26.74-20.05,1.68-1.28,2.86-1.36,4,.44,1.4,2.18,3,1.93,4.64.28a18.25,18.25,0,0,1,1.77-1.38c4.8-3.8,4.79-3.79,9.23.41.78.74,1.54,1.71,2.94,1,1.21-.63,1-1.57.78-2.56-2.06-9.54,1.72-17,9.34-22.61,21.4-15.63,42.36-31.8,63.56-47.67,4.32-3.24,8.62-6.51,13-9.69,10.44-7.62,23.8-6.14,31.95,3.78,10.44,12.73,20.71,25.58,30.94,38.47C424.66,120.49,426.37,125,426.22,132.21Zm-53.53-53.9a13.33,13.33,0,0,0-8.49,2.8q-12,9.12-24.11,18.18C322.41,112.61,304.81,126,287,139.21c-5.48,4.07-7.63,13.58-2.73,19,3.26,3.62,6.31,7.42,9.35,11.22,7.3,9.12,14.47,18.35,21.85,27.42a12.11,12.11,0,0,0,12.59,4.49,21.37,21.37,0,0,0,8-3.82c9.11-7,18.29-13.83,27.45-20.74q24-18.09,48-36.21c6.79-5.15,7.49-12.36,2.27-19.11-3.55-4.59-7.42-9-10.9-13.57-6.32-8.37-13.09-16.39-19.59-24.62A12.85,12.85,0,0,0,372.69,78.31ZM200.84,280.24c1.38,1.13,2.31,2.8,3.62,4,.9.81,1.87,3,4,1.5s4.39-2.88,6.49-4.45c8.82-6.59,17.64-13.18,26.37-19.88,2-1.52,3.49-2.47,5,.34,1.09,2,2.3,1.55,3.88.32,5.72-4.44,11.53-8.78,17.35-13.1,2-1.5,2.63-3.2.89-5.14-1.3-1.44-.83-2.24.49-3.26,3.92-3,7.69-6.24,11.66-9.2,6.72-5,13.57-9.88,20.33-14.85,1.76-1.3,3.61-2.68,1-4.92a3.34,3.34,0,0,1-.71-2c-.35-2.19-1.8-2.48-3.51-1.77a17.35,17.35,0,0,0-3.84,2.33q-15.27,11.44-30.47,23c-1.46,1.11-2.42,1.46-3.64-.27s-.24-2.65,1.1-3.55c11.53-7.73,22.2-16.54,33.36-24.73.8-.59,1.52-1,.86-2.39-2.76-5.56-5-6.17-9.89-2.48Q270.28,211,255.35,222.16c-1.06.8-2.23,2.68-4,.44-2.82-3.62-5.79-7.12-8.76-10.62-1.07-1.27-1.24-2.22.26-3.36,3-2.28,5.66-4.93,8.76-7,7.31-4.93,14.23-10.35,21.28-15.61,5.09-3.8,5-3.75,1.9-8.77-1.5-2.4-2.71-2.44-5-.68-10.27,7.94-20.71,15.69-31.08,23.52q-29.24,22-58.46,44.08c-5.43,4.1-5.32,4.06-.72,9.24,1.39,1.56,2.32,1.53,3.67.25a87.28,87.28,0,0,1,9.37-7.17c8-5.73,15.77-11.8,23.63-17.73,1.09-.83,2-1.93,3.39-.13,3,3.88,6.07,7.64,9.17,11.4.8,1,.76,1.66-.27,2.45-7,5.33-13.83,10.75-20.83,16-4.21,3.17-8.67,6-12.81,9.27-.76.6-2.83,1.68-1.17,3.48,1.27,1.38,2.52,2.78,3.69,4.25.81,1,1.5,1.07,2.48.23,8.52-7.32,18.43-12.94,26.65-20.63a82,82,0,0,1,6.78-5.13c1.38-1,2.53-1.22,3.81.31s.56,2.27-.72,3.23C224.59,262.35,212.77,271.26,200.84,280.24Zm-74.78,61.33c-.18-1.71-.16-3.34-1.24-4.7-3.58-4.49-7.08-9-10.75-13.45-2.31-2.78-5.52-3.41-9-2.76-2.48.45-3.12-.42-2.07-2.58,1.52-3.12,1.79-6.18-.54-9.06-3.05-3.77-5.94-7.67-9.24-11.22-3.68-3.95-9.51-4.83-13.14-2.16-10.77,7.93-21.43,16-32.2,23.9-1.76,1.29-1.85,2.15-.5,3.79,6,7.23,11.79,14.56,17.66,21.85q13,16.17,26.06,32.33c.83,1,1.35,2.92,3.46,1.28,4.66-3.64,9.49-7.09,14.13-10.76,1.73-1.37,3-3.19.76-5.22-1.88-1.73-1.08-2.85.65-4.1,3.88-2.81,7.63-5.77,11.48-8.62A11.32,11.32,0,0,0,126.06,341.57Zm6-73c2.13,3.63,5.38,6.55,7.91,10,7,9.45,14.67,18.39,22,27.62,3.12,3.94,2.83,8.78-1.08,11.82-2.49,1.93-5,3.91-7.56,5.67-1.89,1.27-2.35,2.38-.55,4a11.88,11.88,0,0,1,2.13,2.61c1.16,1.92,2.27,1.66,3.89.39,8.61-6.72,17.35-13.29,25.95-20,5.58-4.36,6.38-11,2.11-16.58q-7.51-9.86-15.22-19.57c-5.33-6.74-10.75-13.41-16.16-20.09-1-1.21-2.13-2.41,0-3.5,3.19-1.62,2.52-3.39.39-5.35a7.64,7.64,0,0,1-1.4-1.75c-1.49-2.64-2.89-2.82-5.5-.83-17.45,13.36-35.06,26.52-52.62,39.75-6.22,4.68-6.21,4.69-1,10.52a2.17,2.17,0,0,1,.23.3c.89,1.52,1.8,1.19,3,.25C109.7,285.43,120.85,277.07,132.1,268.6ZM158,310.47a10.81,10.81,0,0,0-2.18-6.76c-5.83-7.41-11.63-14.84-17.64-22.11-4.08-4.94-10-5.5-15.21-1.67s-10.06,7.54-15.05,11.35c-6.63,5.06-7.1,8.73-1.9,15.23s10.51,13.1,15.8,19.62,11.09,7.15,17.83,2.1c4.86-3.63,9.72-7.26,14.51-11C156.35,315.55,158.05,313.47,158,310.47ZM236,184.33c-.5.43-1.1,1-1.76,1.5C230.18,189,226,192,222,195.17c-4.9,3.83-5.09,2.22-1,7.67,1.44,1.91,2.41,1.43,3.93.24,4.47-3.48,9-6.86,13.57-10.23,1.34-1,2.59-3.1,4.46-.32.66,1,2.38-.14,2.56-.61.77-2,3-2.08,4.24-3.32,3.67-3.55,10.69-4.29,10.19-11.41,0-.49.89-1.31,1.53-1.53,2.09-.73,3.21-2.63,5-3.68s2.75-2.09.36-4.17c-4-3.47-3.72-3.73-7.94-.53-1.11.84-2.27,1.61-3.3,2.53-1.33,1.2-2.37,1.15-3.37-.37-1.54-2.35-3.33-1.9-5.25-.42q-4.8,3.67-9.65,7.27c-2.53,1.88-6.14,3.44-1.87,7C235.69,183.44,235.74,183.73,236,184.33ZM216.87,208c-.28-2.36-2.36-3.13-3.55-4.45s-2.81.32-3.93,1.13c-4.38,3.16-8.75,6.35-12.91,9.76-2,1.62-3.16,1.51-4.49-.53-.7-1.09-1.35-2.48-3.19-1-4.74,3.7-9.57,7.28-14.4,10.87-1,.73-1.44,1.55-.4,2.4,3.3,2.73,1.56,4.38-1.14,6.06a58.58,58.58,0,0,0-4.84,3.62c-.69.53-1.57,1.09-.74,2.1,1.34,1.63,2.44,3.74,4.2,4.68,1.5.81,2.44-1.65,3.81-2.42.73-.41,1.37-1,2.12-1.38,2-1.06,3.57-4.46,6.4-1,.49.6,1.33-.32,1.92-.76q7-5.21,14-10.41c.83-.61,1.8-1.28.7-2.36-1.68-1.64-.49-2.45.81-3.45,4.76-3.69,9.88-7,14.14-11.24C215.94,209.05,217,208.86,216.87,208Zm-24.6,41.78c3,1.48,2.11,2.87-.26,4.29-1.3.77-2.34,2-3.66,2.67-3.3,1.78-3.61,3.46-1,6.42,2.14,2.43,3.46,2.57,5.67.46a44.34,44.34,0,0,1,4.8-3.66c.68-.49,1.39-1.55,2.28-.91,2.18,1.56,3.66-.15,5-1.06,3.51-2.36,6.78-5.05,10.17-7.58.92-.68,2.28-1.85,1.93-2.47-1.65-2.87,1.15-3.62,2.4-4.59,4.63-3.6,4.64-3.4.8-7.83-1.45-1.66-2.33-1.22-3.69-.09-2.15,1.79-3.74,5.48-7.61,2.25-.63-.53-1.56.6-2.24,1.11C202.05,242.41,197.25,246,192.27,249.79ZM286.76,192a41.33,41.33,0,0,0-3.87-4.21c-1.34-1.14-2.47-.05-3.61.85-1.76,1.38-3.67,2.58-5.54,3.83-.59.4-1.37,1.36-1.92.68-2.51-3.08-3.88-.15-5.46.93a62.92,62.92,0,0,0-7.78,5.94c-1.69,1.6-6.17,2-3.62,6.09.12.19-.84,1.1-1.4,1.55-1.38,1.1-2.85,2.08-4.21,3.19-.39.33-1.54.34-1.07,1.12,1.25,2.12,2.26,4.74,4.52,5.75,1.68.75,3.06-1.36,4-2.68,1.16-1.59,3.19-2.82,4.21-1.59,1.72,2.08,2.57.33,3.48-.18,4.77-2.7,7.83-7.57,13-9.78.64-.27,1.45-1,.65-1.71-1.82-1.69-.06-2.26.92-3,2.07-1.64,4.19-3.21,6.29-4.81C286,193.45,286.75,193.15,286.76,192Z" transform="translate(-0.69 -0.67)"/><path class="cls-2" d="M170.42,199.63c.16,1,.27,1.62.34,2.21.28,2,3,4.06,1.25,5.83-2.47,2.56-5.67,4.46-8.65,6.53-1,.67-1.89,0-2.76-.64-2.64-1.84-5.33-3.62-8.29-5.63a80.37,80.37,0,0,1,.53,8.82c-.51,10.46-9.14,16.43-19.58,13.72-11.89-3.08-22.32-16.06-22.42-27.89-.1-12.37,10.15-19.18,22.06-14.45a4.9,4.9,0,0,0,5.48-.79c9.88-7.44,19.76-14.89,29.73-22.21,2.5-1.84,3.33-3.38.83-5.83-1.76-1.74-3.06-3.92-4.77-5.72-2.11-2.22-1.54-3.89.72-5.48,2.57-1.8,5.19-3.54,7.64-5.47,1.87-1.48,3.28-1.62,4.7.49s2.78,1.57,4.7.25c3.44-2.37,5.91-4.54,5.48-9.4-.47-5.15,5.49-8.43,10.57-6.58a12.19,12.19,0,0,1,7.27,6.62c1,2.14,1.84,2.05,3.58.54a109.84,109.84,0,0,1,10-7.68,7.38,7.38,0,0,1,6.21-1.06c1.48.4,2.32-.09,2.58-1.76,1.69-10.74,11.74-13.64,21.31-8.94,8.27,4.06,13.56,13.91,12.24,22.81a11.67,11.67,0,0,1-10.39,9.78c-1.9.18-3.91-.15-3.4,2.82.19,1.12-1.19,1.49-2,2.07Q217.1,174,188.75,195.28a10.88,10.88,0,0,0-2.32,1.89C182.07,203.2,177.06,202.58,170.42,199.63ZM114.48,202c-.15,11.31,10.58,23.78,21.84,25.36,3.73.53,7.55.13,9.72-3,2.87-4.08,4.41-8.82,2.68-13.86-2.78-8.05-7.47-14.29-15.8-18.18C123.12,187.77,114.62,191.83,114.48,202Zm53.87-29.48c-7.1-.08-9.32,2.4-7.68,9,1.87,7.5,6.8,12.75,13.81,16,4.79,2.25,8,.63,9-4.25.27-1.24.19-1,1.51-.82,2.89.35,4.56-2.25,6.17-4.23,1.1-1.36.09-2.86-.85-4q-7.08-9-14.26-17.87c-.61-.76-1.15-1.46-2.51-1C171.12,166.07,168.18,169.93,168.35,172.5ZM217.12,136c-3.62-3-4.75.95-6.87,1.79-2.6,1-2.46,2.46-.78,4.48,4.55,5.47,8.91,11.08,13.35,16.64,3.23,4,3.14,3.91,7.53.85,2.64-1.84,2.61-3.58.7-5.73-2.49-2.79-4.34-6.08-7.28-8.5-1-.84-1.34-2.13-.3-2.82s2.13-.67,3.05.92c1.27,2.22,3.19,4.09,4.81,6.12,4.61,5.77,4.59,5.74,10.42,1.38,1.28-1,1.53-1.64.45-3Q236,140.64,230,132.93c-2.07-2.65-4.49-4.47-8.09-3.65C218.52,130.05,217.36,132.57,217.12,136Zm30.44,8.53c8.92.78,12.55-7.26,9.54-15.12-.27-.7-.79-1.65-1.58-.9-2,1.9-5.51,2.37-5.79,5.83-.1,1.13-.66,1.93-1.86,1.92a3.32,3.32,0,0,1-2.74-1.78c-.85-1.29.41-1.71,1.1-2.32,2.24-2,4.5-3.92,6.77-5.87a2.19,2.19,0,0,0,.44-3.17c-2.51-4.14-9.88-7.56-14.86-6.81-4.59.69-8.74,6.13-8.14,10.58.64,4.74,3.23,8.65,6.29,12.05C239.53,142.06,242.87,145.08,247.56,144.55Zm-94.41,50.12a25.63,25.63,0,0,0-6-5.82c-.93-.67-1.84-2.29-3.19-1.15-1.91,1.64-4.9,2.3-5.42,5.25a1.47,1.47,0,0,0,.52,1.23c7.18,5.07,14.48,10,21.55,15.19,2.77,2,3.79-.43,5.43-1.35s3-1.88,1.71-4.09c-4-7-5.77-15-9.38-22.12-.56-1.11-1-3.83-3.29-2.26-2.13,1.44-6.28,1.76-4.56,6.09C151.61,188.31,153.06,190.9,153.15,194.67ZM173.84,146a32,32,0,0,1-3.79,2.77c-2.82,1.56-2.75,3-.76,5.41,7.37,8.91,14.51,18,21.73,27,4.16,5.19,4.06,5.07,9.43,1,2-1.52,1.79-2.47.3-4.05q-3.28-3.51-6.26-7.28c-6.17-7.8-12.27-15.66-18.42-23.48C175.57,146.82,175.23,145.86,173.84,146ZM203,157.12c0-1-6.17-8.68-6.86-8.36-2.16,1-2.66-.69-3.53-1.73-3.48-4.16-4.45-4.21-8.87-.77-1.62,1.26-2,2.17-.43,3.83,1.33,1.38,3.26,3.35,3,4.79-.77,5.12,3,7,6.26,9a15.91,15.91,0,0,1,4.22,3.54c2.06,2.65,4.09,5.34,6.33,7.85,1,1.13,1.61,4,4.2,1.68,2.08-1.87,5.64-3,3.29-6.95-1.79-3-4.34-5.45-6.29-8.33C203.47,160.35,201.08,159.28,203,157.12Zm2.14-15.63a13.14,13.14,0,0,1-3.27,2.41c-3.6,2.21-2.61,4.19-.59,6.66,3.88,4.74,7.65,9.56,11.48,14.34,4.1,5.12,4.06,5,9.42,1,1.65-1.25,2-2,.56-3.77-5.28-6.37-10.38-12.88-15.56-19.33A2.5,2.5,0,0,0,205.16,141.49Zm-7.52.91c3.91,0,5.29-1.2,5.17-4.45-.14-3.66-3.94-7.55-7.51-7.55-3.09,0-4.63,1.67-4.72,4.59A7.19,7.19,0,0,0,197.64,142.4Z" transform="translate(-0.69 -0.67)"/><path class="cls-2" d="M386.8,201.83c-1.24,2.71-2.66,5-6.28,2.84-.35-.65-.72-1.29-1-2-.43-.91-.93-2.11-2.13-1.43s.18,1.55.48,2.16c.54,1.09.49,2.5-.46,2.38-3-.37-3.64,1.92-4.87,3.88-2.36-3.58,1.93-5.25,1.73-8.08-5.75-.88-11.05,2.75-16.77,1.49.42-2.18,2.24-2,3.87-2.15a35.08,35.08,0,0,0,21.16-8.75,61.18,61.18,0,0,0,7.43-7.84c2.71-3.41,6.52-4.57,10.46-5.57a65.53,65.53,0,0,0,12.18-4.15c3.3-1.57,6.89-2.36,10.18-1.45-1.3,4-4,5.42-8.23,3.11-1.32-.72-2.29-.32-1.53,1.52a2.57,2.57,0,0,1-1,3.29,4.42,4.42,0,0,0-2.48,3.77c-.18,1.9-1.42,1.73-2.63.61-4.77-4.21-14.25-2.51-17.34,2.92,1.11,1.89,2.29-2.18,3.32.09.89,2,2.78,2.35,4.33,3.31.77,2.57-1.36,2.42-2.86,2.86-.4.49-2.1-.62-1.48,1.19.55,1.62-.45,1.67-1.62,1.24-1.58-.58-3.6,0-4.78-1.6-.38-.51-.55-1.22-1.23-.31-1,1.32-2.59,1.53-4,1.86-2.41.57-1.14,1.81-1.13,3.74.91-4.4,4-1.32,5.75-2.54C386.57,197.77,387,200.4,386.8,201.83Z" transform="translate(-0.69 -0.67)"/><path class="cls-2" d="M374.48,211.36c-1.06,2.06-3.49,2.18-5.18,3.36-2.63,1.82-4.14,4.55-6.41,6.63-1.87,1.72-3.89,2.81-6.54,2.47-1.07-1.25-2.56-2.31-2.36-4-3.15,1.49-.63,3.4,0,5.26-.26.71-.51,1.41-.76,2.11-2.58-2.36-5.36-3.32-8.57-1.12a3.57,3.57,0,0,1,.91-3.41c3.41-3.55,4.8-8,5.87-12.59a23.31,23.31,0,0,1,2.26-5.76,2,2,0,0,1,2.91-.63,18.1,18.1,0,0,0,1,4.19c.55,2.18,2.56,3.88,2.2,6.22-.14.93-1.75,1.85.43,2.4,1.27.32,2.66,1.45,3.36-.62.95-2.85,3.92-3.45,5.85-5.2C371.68,208.61,373.08,209.22,374.48,211.36Z" transform="translate(-0.69 -0.67)"/><path class="cls-3" d="M374.48,211.36c-1.4-2.14-2.8-2.75-5.06-.7-1.93,1.75-4.9,2.35-5.85,5.2-.7,2.07-2.09.94-3.36.62-2.18-.55-.57-1.47-.43-2.4.36-2.34-1.65-4-2.2-6.22a18.1,18.1,0,0,1-1-4.19l.85-.56c5.72,1.26,11-2.37,16.77-1.49.2,2.83-4.09,4.5-1.73,8.08,1.23-2,1.87-4.25,4.87-3.88.95.12,1-1.29.46-2.38-.3-.61-1.58-1.53-.48-2.16s1.7.52,2.13,1.43c.32.67.69,1.31,1,2,.29,2.27-1.65,3-3,4.13C376.48,209.64,375.49,210.51,374.48,211.36Z" transform="translate(-0.69 -0.67)"/><path class="cls-3" d="M397.19,191.82c-1.55-1-3.44-1.36-4.33-3.31-1-2.27-2.21,1.8-3.32-.09,3.09-5.43,12.57-7.13,17.34-2.92C405.14,189.75,401.06,190.63,397.19,191.82Z" transform="translate(-0.69 -0.67)"/><path class="cls-3" d="M344.66,226.06c3.21-2.2,6-1.24,8.57,1.12-1.78.27-2.84,2.35-5.13,1.63-1.08-.34-1.56,1-1.64,2.05a2.89,2.89,0,0,1-1.75,2.63c-.55.25-1.24.71-1.69.56-.86-.28-.79-1.25-.58-1.9C343.1,230.1,343.91,228.09,344.66,226.06Z" transform="translate(-0.69 -0.67)"/><path class="cls-3" d="M386.8,201.83c.19-1.43-.23-4.06-1-3.57-1.76,1.22-4.84-1.86-5.75,2.54,0-1.93-1.28-3.17,1.13-3.74,1.41-.33,3-.54,4-1.86.68-.91.85-.2,1.23.31,1.18,1.61,3.2,1,4.78,1.6,1.17.43,2.17.38,1.62-1.24-.62-1.81,1.08-.7,1.48-1.19a3,3,0,0,1-1.61,3.41C390.77,199.37,388.78,200.58,386.8,201.83Z" transform="translate(-0.69 -0.67)"/><path class="cls-3" d="M354,225.07c-.63-1.86-3.15-3.77,0-5.26-.2,1.7,1.29,2.76,2.36,4-.18.17-.37.35-.54.53a4.54,4.54,0,0,0-.69.21C354.67,224.58,354.62,225.43,354,225.07Z" transform="translate(-0.69 -0.67)"/><path class="cls-2" d="M355.12,224.56a4.54,4.54,0,0,1,.69-.21,4.55,4.55,0,0,1,.26.87C355.37,225.58,355.31,225,355.12,224.56Z" transform="translate(-0.69 -0.67)"/><path class="cls-3" d="M372.7,78.31a12.84,12.84,0,0,1,10.63,5c6.5,8.23,13.27,16.25,19.59,24.62,3.48,4.61,7.35,9,10.9,13.57,5.22,6.75,4.52,14-2.27,19.11q-24,18.16-48,36.21c-9.16,6.91-18.34,13.78-27.45,20.74a21.37,21.37,0,0,1-8,3.82,12.11,12.11,0,0,1-12.59-4.49c-7.38-9.07-14.55-18.3-21.85-27.42-3-3.8-6.09-7.6-9.35-11.22-4.9-5.41-2.75-14.92,2.73-19,17.8-13.18,35.4-26.6,53.08-39.92q12.06-9.09,24.11-18.18A13.34,13.34,0,0,1,372.7,78.31Zm-.48,35.55a8.52,8.52,0,0,0-.43-.8c-2.52-3.19-4.64-6.75-7.91-9.28-3.42-2.66-8.89-2.7-11.52,0a57.4,57.4,0,0,1-8.16,6.53c-1,.69-1.21.87-.41,1.79,3.71,4.3,7.36,8.64,11,13,.73.86,1.36,1.33,2.5.46,4.67-3.58,9.39-7.07,14.07-10.62A5.1,5.1,0,0,0,372.22,113.86ZM390,138.41a5.78,5.78,0,0,0-.21-1.33c-1.77-4.67-5-8.37-8.42-12-1-1-2.09-.06-2.64.51-3.77,3.89-8.41,6.73-12.67,10-1.32,1-1.38,1.71-.34,3q5,6.06,9.87,12.27c1,1.31,1.82,1.36,3.09.34,2.65-2.13,5.43-4.09,8.1-6.2A8.54,8.54,0,0,0,390,138.41Zm-81.35,3.43a7.74,7.74,0,0,0,.29,1.56c1.65,4.41,5.26,7.51,8,11.15.79,1,1.59.17,2.27-.34,4.44-3.32,8.84-6.68,13.31-10,1.32-1,1.39-1.76.36-3-3.35-4-6.62-8.14-9.89-12.23-.87-1.09-1.84-1.87-3.16-.78-3.12,2.58-6.26,5.14-9.21,7.89C309.14,137.53,308.64,139.53,308.62,141.84Zm31.65,36.1a8,8,0,0,0,4.64-1.49c2.6-1.95,5.17-4,7.91-5.74,1.94-1.25,2.11-2.28.6-4-2.31-2.62-4.45-5.38-6.6-8.13-4.48-5.73-4.45-5.73-10.1-.83-.76.66-1.6,1.23-2.4,1.84-8.82,6.67-8.82,6.66-1.34,15A9.3,9.3,0,0,0,340.27,177.94Z" transform="translate(-0.69 -0.67)"/><path class="cls-3" d="M200.84,280.24c11.93-9,23.75-17.89,35.59-26.76,1.28-1,2-1.68.72-3.23s-2.43-1.35-3.81-.31a82,82,0,0,0-6.78,5.13c-8.22,7.69-18.13,13.31-26.65,20.63-1,.84-1.67.79-2.48-.23-1.17-1.47-2.42-2.87-3.69-4.25-1.66-1.8.41-2.88,1.17-3.48,4.14-3.24,8.6-6.1,12.81-9.27,7-5.27,13.88-10.69,20.83-16,1-.79,1.07-1.46.27-2.45-3.1-3.76-6.21-7.52-9.17-11.4-1.37-1.8-2.3-.7-3.39.13-7.86,5.93-15.62,12-23.63,17.73a87.28,87.28,0,0,0-9.37,7.17c-1.35,1.28-2.28,1.31-3.67-.25-4.6-5.18-4.71-5.14.72-9.24q29.2-22.06,58.46-44.08c10.37-7.83,20.81-15.58,31.08-23.52,2.27-1.76,3.48-1.72,5,.68,3.12,5,3.19,5-1.9,8.77-7.05,5.26-14,10.68-21.28,15.61-3.1,2.09-5.79,4.74-8.76,7-1.5,1.14-1.33,2.09-.26,3.36,3,3.5,5.94,7,8.76,10.62,1.73,2.24,2.9.36,4-.44q15-11.11,29.79-22.39c4.88-3.69,7.13-3.08,9.89,2.48.66,1.34-.06,1.8-.86,2.39-11.16,8.19-21.83,17-33.36,24.73-1.34.9-2.37,1.75-1.1,3.55s2.18,1.38,3.64.27q15.18-11.58,30.47-23a17.35,17.35,0,0,1,3.84-2.33c1.71-.71,3.16-.42,3.51,1.77a3.34,3.34,0,0,0,.71,2c2.63,2.24.78,3.62-1,4.92-6.76,5-13.61,9.83-20.33,14.85-4,3-7.74,6.18-11.66,9.2-1.32,1-1.79,1.82-.49,3.26,1.74,1.94,1.14,3.64-.89,5.14-5.82,4.32-11.63,8.66-17.35,13.1-1.58,1.23-2.79,1.7-3.88-.32-1.51-2.81-3-1.86-5-.34-8.73,6.7-17.55,13.29-26.37,19.88-2.1,1.57-4.35,2.94-6.49,4.45s-3.08-.69-4-1.5C203.15,283,202.22,281.37,200.84,280.24Z" transform="translate(-0.69 -0.67)"/><path class="cls-3" d="M126.06,341.57a11.32,11.32,0,0,1-4.51,8.52c-3.85,2.85-7.6,5.81-11.48,8.62-1.73,1.25-2.53,2.37-.65,4.1,2.23,2,1,3.85-.76,5.22-4.64,3.67-9.47,7.12-14.13,10.76-2.11,1.64-2.63-.26-3.46-1.28Q78,361.37,65,345.18c-5.87-7.29-11.7-14.62-17.66-21.85-1.35-1.64-1.26-2.5.5-3.79,10.77-7.91,21.43-16,32.2-23.9,3.63-2.67,9.46-1.79,13.14,2.16,3.3,3.55,6.19,7.45,9.24,11.22,2.33,2.88,2.06,5.94.54,9.06-1,2.16-.41,3,2.07,2.58,3.51-.65,6.72,0,9,2.76,3.67,4.42,7.17,9,10.75,13.45C125.9,338.23,125.88,339.86,126.06,341.57ZM105.57,351c-.24-2.64-2.15-4.38-3.68-6.3-2-2.53-4-5-6.18-7.46-1.49-1.7-3.23-1.14-4.72,0-1.92,1.47,0,2.23.79,3.17,3.27,4.07,6.52,8.14,9.84,12.17.62.76,1,2.35,2.45,1.63C105.22,353.63,105.55,352.28,105.57,351ZM84.65,324.73c-.17-1.69-9.45-13.27-11-13.75a3.49,3.49,0,0,0-3.46,1.07c-1.18,1.08.25,1.74.77,2.4q4.71,6,9.6,11.92c.64.77,1,2.46,2.41,1.82A3.38,3.38,0,0,0,84.65,324.73Z" transform="translate(-0.69 -0.67)"/><path class="cls-3" d="M132.1,268.6c-11.25,8.47-22.4,16.83-33.51,25.25-1.23.94-2.14,1.27-3-.25a2.17,2.17,0,0,0-.23-.3c-5.16-5.83-5.17-5.84,1-10.52C113.94,269.55,131.55,256.39,149,243c2.61-2,4-1.81,5.5.83a7.64,7.64,0,0,0,1.4,1.75c2.13,2,2.8,3.73-.39,5.35-2.15,1.09-1,2.29,0,3.5,5.41,6.68,10.83,13.35,16.16,20.09q7.69,9.72,15.22,19.57c4.27,5.61,3.47,12.22-2.11,16.58-8.6,6.73-17.34,13.3-25.95,20-1.62,1.27-2.73,1.53-3.89-.39a11.88,11.88,0,0,0-2.13-2.61c-1.8-1.66-1.34-2.77.55-4,2.61-1.76,5.07-3.74,7.56-5.67,3.91-3,4.2-7.88,1.08-11.82-7.3-9.23-15-18.17-22-27.62C137.48,275.15,134.23,272.23,132.1,268.6Z" transform="translate(-0.69 -0.67)"/><path class="cls-3" d="M158,310.47c.09,3-1.61,5.08-3.84,6.79-4.79,3.71-9.65,7.34-14.51,11-6.74,5-12.57,4.37-17.83-2.1s-10.56-13.05-15.8-19.62-4.73-10.17,1.9-15.23c5-3.81,10-7.62,15.05-11.35s11.13-3.27,15.21,1.67c6,7.27,11.81,14.7,17.64,22.11A10.81,10.81,0,0,1,158,310.47Zm-16.69,2.6a9.49,9.49,0,0,0-.63-1c-5-6.22-10-12.44-15.06-18.63-2-2.48-2.93.42-4.22,1s-2.52,1.51-1,3.37c4.85,5.8,9.52,11.74,14.28,17.6.57.69,1,2.05,2.32,1.15C138.5,315.55,140.23,314.7,141.27,313.07Z" transform="translate(-0.69 -0.67)"/><path class="cls-3" d="M236,184.33c-.3-.6-.35-.89-.53-1-4.27-3.57-.66-5.13,1.87-7q4.86-3.6,9.65-7.27c1.92-1.48,3.71-1.93,5.25.42,1,1.52,2,1.57,3.37.37,1-.92,2.19-1.69,3.3-2.53,4.22-3.2,4-2.94,7.94.53,2.39,2.08,1.36,3.18-.36,4.17s-3,3-5,3.68c-.64.22-1.56,1-1.53,1.53.5,7.12-6.52,7.86-10.19,11.41-1.28,1.24-3.47,1.3-4.24,3.32-.18.47-1.9,1.59-2.56.61-1.87-2.78-3.12-.67-4.46.32-4.56,3.37-9.1,6.75-13.57,10.23-1.52,1.19-2.49,1.67-3.93-.24-4.12-5.45-3.93-3.84,1-7.67,4.06-3.16,8.21-6.22,12.31-9.34C234.94,185.33,235.54,184.76,236,184.33Z" transform="translate(-0.69 -0.67)"/><path class="cls-3" d="M216.87,208c.13.85-.93,1-1.52,1.62-4.26,4.29-9.38,7.55-14.14,11.24-1.3,1-2.49,1.81-.81,3.45,1.1,1.08.13,1.75-.7,2.36q-7,5.22-14,10.41c-.59.44-1.43,1.36-1.92.76-2.83-3.49-4.42-.09-6.4,1-.75.39-1.39,1-2.12,1.38-1.37.77-2.31,3.23-3.81,2.42-1.76-.94-2.86-3.05-4.2-4.68-.83-1,.05-1.57.74-2.1a58.58,58.58,0,0,1,4.84-3.62c2.7-1.68,4.44-3.33,1.14-6.06-1-.85-.57-1.67.4-2.4,4.83-3.59,9.66-7.17,14.4-10.87,1.84-1.45,2.49-.06,3.19,1,1.33,2,2.51,2.15,4.49.53,4.16-3.41,8.53-6.6,12.91-9.76,1.12-.81,2.84-2.32,3.93-1.13S216.59,205.65,216.87,208Z" transform="translate(-0.69 -0.67)"/><path class="cls-3" d="M192.27,249.79c5-3.75,9.78-7.38,14.59-11,.68-.51,1.61-1.64,2.24-1.11,3.87,3.23,5.46-.46,7.61-2.25,1.36-1.13,2.24-1.57,3.69.09,3.84,4.43,3.83,4.23-.8,7.83-1.25,1-4,1.72-2.4,4.59.35.62-1,1.79-1.93,2.47-3.39,2.53-6.66,5.22-10.17,7.58-1.35.91-2.83,2.62-5,1.06-.89-.64-1.6.42-2.28.91a44.34,44.34,0,0,0-4.8,3.66c-2.21,2.11-3.53,2-5.67-.46-2.6-3-2.29-4.64,1-6.42,1.32-.71,2.36-1.9,3.66-2.67C194.38,252.66,195.28,251.27,192.27,249.79Z" transform="translate(-0.69 -0.67)"/><path class="cls-3" d="M286.76,192c0,1.2-.78,1.5-1.35,1.94-2.1,1.6-4.22,3.17-6.29,4.81-1,.77-2.74,1.34-.92,3,.8.75,0,1.44-.65,1.71-5.2,2.21-8.26,7.08-13,9.78-.91.51-1.76,2.26-3.48.18-1-1.23-3.05,0-4.21,1.59-1,1.32-2.35,3.43-4,2.68-2.26-1-3.27-3.63-4.52-5.75-.47-.78.68-.79,1.07-1.12,1.36-1.11,2.83-2.09,4.21-3.19.56-.45,1.52-1.36,1.4-1.55-2.55-4.13,1.93-4.49,3.62-6.09a62.92,62.92,0,0,1,7.78-5.94c1.58-1.08,2.95-4,5.46-.93.55.68,1.33-.28,1.92-.68,1.87-1.25,3.78-2.45,5.54-3.83,1.14-.9,2.27-2,3.61-.85A41.33,41.33,0,0,1,286.76,192Z" transform="translate(-0.69 -0.67)"/><path class="cls-3" d="M114.48,202c.14-10.15,8.64-14.21,18.44-9.64,8.33,3.89,13,10.13,15.8,18.18,1.73,5,.19,9.78-2.68,13.86-2.17,3.09-6,3.49-9.72,3C125.06,225.76,114.33,213.29,114.48,202ZM138,211.52c-.09-4.38-4.91-9.36-8.65-9.16-2.57.13-3.46,1.78-3.52,3.95-.1,4,4.69,9.19,8.45,9.11C137.06,215.37,138,213.62,138,211.52Z" transform="translate(-0.69 -0.67)"/><path class="cls-3" d="M168.35,172.5c-.17-2.57,2.77-6.43,5.19-7.21,1.36-.45,1.9.25,2.51,1q7.15,8.91,14.26,17.87c.94,1.18,1.95,2.68.85,4-1.61,2-3.28,4.58-6.17,4.23-1.32-.15-1.24-.42-1.51.82-1,4.88-4.21,6.5-9,4.25-7-3.3-11.94-8.55-13.81-16C159,174.9,161.25,172.42,168.35,172.5ZM178,184.4c-.86-1.8-1.94-3.8-4.26-4.48-1.12-.32-1.87.74-1.72,1.88a4.88,4.88,0,0,0,3.87,4.47C177.09,186.56,177.8,185.85,178,184.4Z" transform="translate(-0.69 -0.67)"/><path class="cls-3" d="M217.12,136c.24-3.45,1.4-6,4.76-6.74,3.6-.82,6,1,8.09,3.65q6,7.71,12.23,15.27c1.08,1.31.83,2-.45,3-5.83,4.36-5.81,4.39-10.42-1.38-1.62-2-3.54-3.9-4.81-6.12-.92-1.59-2.15-1.53-3.05-.92s-.71,2,.3,2.82c2.94,2.42,4.79,5.71,7.28,8.5,1.91,2.15,1.94,3.89-.7,5.73-4.39,3.06-4.3,3.18-7.53-.85-4.44-5.56-8.8-11.17-13.35-16.64-1.68-2-1.82-3.45.78-4.48C212.37,137,213.5,133.05,217.12,136Z" transform="translate(-0.69 -0.67)"/><path class="cls-3" d="M247.56,144.55c-4.69.53-8-2.49-10.83-5.59-3.06-3.4-5.65-7.31-6.29-12.05-.6-4.45,3.55-9.89,8.14-10.58,5-.75,12.35,2.67,14.86,6.81a2.19,2.19,0,0,1-.44,3.17c-2.27,1.95-4.53,3.89-6.77,5.87-.69.61-1.95,1-1.1,2.32a3.32,3.32,0,0,0,2.74,1.78c1.2,0,1.76-.79,1.86-1.92.28-3.46,3.82-3.93,5.79-5.83.79-.75,1.31.2,1.58.9C260.11,137.29,256.48,145.33,247.56,144.55Zm-6.77-20.77a1.64,1.64,0,0,0-1.91,1.71c0,1.4.55,2.92,2,3.07a2.58,2.58,0,0,0,2.64-2.18A2.74,2.74,0,0,0,240.79,123.78Z" transform="translate(-0.69 -0.67)"/><path class="cls-3" d="M153.15,194.67c-.09-3.77-1.54-6.36-2.61-9-1.72-4.33,2.43-4.65,4.56-6.09,2.33-1.57,2.73,1.15,3.29,2.26,3.61,7.17,5.37,15.1,9.38,22.12,1.26,2.21-.13,3.2-1.71,4.09s-2.66,3.39-5.43,1.35c-7.07-5.2-14.37-10.12-21.55-15.19a1.47,1.47,0,0,1-.52-1.23c.52-2.95,3.51-3.61,5.42-5.25,1.35-1.14,2.26.48,3.19,1.15A25.63,25.63,0,0,1,153.15,194.67Z" transform="translate(-0.69 -0.67)"/><path class="cls-3" d="M173.84,146c1.39-.17,1.73.79,2.23,1.43,6.15,7.82,12.25,15.68,18.42,23.48q3,3.76,6.26,7.28c1.49,1.58,1.73,2.53-.3,4.05-5.37,4-5.27,4.15-9.43-1-7.22-9-14.36-18.11-21.73-27-2-2.41-2.06-3.85.76-5.41A32,32,0,0,0,173.84,146Z" transform="translate(-0.69 -0.67)"/><path class="cls-3" d="M203,157.12c-1.94,2.16.45,3.23,1.36,4.58,2,2.88,4.5,5.32,6.29,8.33,2.35,3.95-1.21,5.08-3.29,6.95-2.59,2.33-3.2-.55-4.2-1.68-2.24-2.51-4.27-5.2-6.33-7.85a15.91,15.91,0,0,0-4.22-3.54c-3.23-2.08-7-3.91-6.26-9,.22-1.44-1.71-3.41-3-4.79-1.58-1.66-1.19-2.57.43-3.83,4.42-3.44,5.39-3.39,8.87.77.87,1,1.37,2.75,3.53,1.73C196.85,148.44,203,156.14,203,157.12Z" transform="translate(-0.69 -0.67)"/><path class="cls-3" d="M205.16,141.49a2.5,2.5,0,0,1,2,1.32c5.18,6.45,10.28,13,15.56,19.33,1.43,1.73,1.09,2.52-.56,3.77-5.36,4-5.32,4.11-9.42-1-3.83-4.78-7.6-9.6-11.48-14.34-2-2.47-3-4.45.59-6.66A13.14,13.14,0,0,0,205.16,141.49Z" transform="translate(-0.69 -0.67)"/><path class="cls-3" d="M197.64,142.4a7.19,7.19,0,0,1-7.06-7.41c.09-2.92,1.63-4.6,4.72-4.59,3.57,0,7.37,3.89,7.51,7.55C202.93,141.2,201.55,142.39,197.64,142.4Z" transform="translate(-0.69 -0.67)"/><path class="cls-2" d="M372.22,113.86a5.1,5.1,0,0,1-.84,1c-4.68,3.55-9.4,7-14.07,10.62-1.14.87-1.77.4-2.5-.46-3.66-4.34-7.31-8.68-11-13-.8-.92-.57-1.1.41-1.79a57.4,57.4,0,0,0,8.16-6.53c2.63-2.69,8.1-2.65,11.52,0,3.27,2.53,5.39,6.09,7.91,9.28A8.52,8.52,0,0,1,372.22,113.86Z" transform="translate(-0.69 -0.67)"/><path class="cls-2" d="M390,138.41a8.54,8.54,0,0,1-3.22,6.61c-2.67,2.11-5.45,4.07-8.1,6.2-1.27,1-2.07,1-3.09-.34q-4.83-6.21-9.87-12.27c-1-1.25-1-1.94.34-3,4.26-3.31,8.9-6.15,12.67-10,.55-.57,1.66-1.56,2.64-.51,3.38,3.61,6.65,7.31,8.42,12A5.78,5.78,0,0,1,390,138.41Z" transform="translate(-0.69 -0.67)"/><path class="cls-2" d="M308.62,141.84c0-2.31.52-4.31,2-5.71,2.95-2.75,6.09-5.31,9.21-7.89,1.32-1.09,2.29-.31,3.16.78,3.27,4.09,6.54,8.19,9.89,12.23,1,1.24,1,2-.36,3-4.47,3.28-8.87,6.64-13.31,10-.68.51-1.48,1.36-2.27.34-2.79-3.64-6.4-6.74-8-11.15A7.74,7.74,0,0,1,308.62,141.84Z" transform="translate(-0.69 -0.67)"/><path class="cls-2" d="M340.27,177.94a9.3,9.3,0,0,1-7.29-3.38c-7.48-8.3-7.48-8.29,1.34-15,.8-.61,1.64-1.18,2.4-1.84,5.65-4.9,5.62-4.9,10.1.83,2.15,2.75,4.29,5.51,6.6,8.13,1.51,1.71,1.34,2.74-.6,4-2.74,1.76-5.31,3.79-7.91,5.74A8,8,0,0,1,340.27,177.94Z" transform="translate(-0.69 -0.67)"/><path class="cls-2" d="M105.57,351c0,1.28-.35,2.63-1.5,3.2-1.42.72-1.83-.87-2.45-1.63-3.32-4-6.57-8.1-9.84-12.17-.75-.94-2.71-1.7-.79-3.17,1.49-1.14,3.23-1.7,4.72,0,2.14,2.42,4.17,4.93,6.18,7.46C103.42,346.61,105.33,348.35,105.57,351Z" transform="translate(-0.69 -0.67)"/><path class="cls-2" d="M84.65,324.73a3.38,3.38,0,0,1-1.7,3.46c-1.37.64-1.77-1.05-2.41-1.82q-4.89-5.89-9.6-11.92c-.52-.66-2-1.32-.77-2.4A3.49,3.49,0,0,1,73.63,311C75.2,311.46,84.48,323,84.65,324.73Z" transform="translate(-0.69 -0.67)"/><path class="cls-2" d="M141.27,313.07c-1,1.63-2.77,2.48-4.28,3.54-1.28.9-1.75-.46-2.32-1.15-4.76-5.86-9.43-11.8-14.28-17.6-1.55-1.86-.41-2.71,1-3.37s2.19-3.52,4.22-1c5.06,6.19,10,12.41,15.06,18.63A9.49,9.49,0,0,1,141.27,313.07Z" transform="translate(-0.69 -0.67)"/><path class="cls-2" d="M138,211.52c-.08,2.1-1,3.85-3.72,3.9-3.76.08-8.55-5.09-8.45-9.11.06-2.17.95-3.82,3.52-3.95C133.13,202.16,138,207.14,138,211.52Z" transform="translate(-0.69 -0.67)"/><path class="cls-2" d="M178,184.4c-.21,1.45-.92,2.16-2.11,1.87A4.88,4.88,0,0,1,172,181.8c-.15-1.14.6-2.2,1.72-1.88C176.07,180.6,177.15,182.6,178,184.4Z" transform="translate(-0.69 -0.67)"/><path class="cls-2" d="M240.79,123.78a2.74,2.74,0,0,1,2.77,2.6,2.58,2.58,0,0,1-2.64,2.18c-1.49-.15-2-1.67-2-3.07A1.64,1.64,0,0,1,240.79,123.78Z" transform="translate(-0.69 -0.67)"/></svg>