<svg id="圖層_1" data-name="圖層 1" xmlns="http://www.w3.org/2000/svg" viewBox="0 0 459.25 444.88"><defs><style>.cls-1{fill:#fff;}</style></defs><title>阿華田</title><path d="M460,445.62H.77V.74H460ZM283.63,248.41c-2.87-5.09-2.87-5.09,1.75-8.58,9.74-7.37,19.43-14.8,29.25-22.07,2.24-1.66,2.67-3,.69-5a22.5,22.5,0,0,1-2.38-3.75l.69-.81a30.7,30.7,0,0,1,3.47.81c8.14,3,15.72,2.25,22.7-3Q378.88,176.54,418,147.1c9.95-7.54,11.53-21,3.73-30.81Q406.54,97.2,391.1,78.34c-8.69-10.65-22-12.17-33.15-3.84q-38.56,28.86-77.05,57.82c-7.19,5.42-10.31,12.64-8.85,21.53a19.49,19.49,0,0,1-.23,3.39c-1.69-1.53-3-2.29-3.67-3.4-1.82-3-3.68-2.75-6.1-.71-2,1.67-4.2,3.07-6.23,4.54-4.5-3.84-4.49-3.83-9-.48-5,3.73-10.06,7.44-15,11.09-2.38-1.44-2.56-2.64-.54-4.15,5-3.77,10.05-7.59,15-11.51,1.13-.9,1.83-2.31,3.09-4,5.76-.55,10.52-3.37,12.24-9.93,2.51-9.58-5.07-22-15.6-25.51-3.69-1.23-7.33-2.06-11.1-.14-2.65,1.36-4,.17-4.51-2.48a84.17,84.17,0,0,0-2.06-9.35,4,4,0,0,0-2.77-2.38,173,173,0,0,0-17.92-.32c-34.13,1.78-62.67,15.52-84.94,40.16C104.34,159,94,183.16,92.83,210.5a118.35,118.35,0,0,0,9.6,53.19c.94,2.16.15,3.08-1.42,4.26C91.3,275.27,81.65,282.68,72,290Q53.59,304,35.16,317.79a20.35,20.35,0,0,1-2.72,1.48L91.2,392.61l33.66-25.39-3.84-5.5c.77-.53,1.37-1,2-1.37,7-4.5,12-10.25,12.44-18.87a2.86,2.86,0,0,1,1.52-1.82c3.14-1.6,6.34-3.05,9.8-4.69l8.31,9.93c5.46-4.18,10.69-7.91,15.58-12,3.13-2.64,6.1-3.2,10.09-2,14.47,4.22,29.33,5,44.32,4.09,5-.32,5.5-1,4.84-5.62a26.23,26.23,0,0,1-.26-4.43c.23-8.72.9-17.46.6-26.16-.17-4.81,2-10.25-2.89-14.44,4.4-3.41,8.49-6.73,12.8-9.77.83-.59,3.14-.57,3.66.05,2.36,2.79,4.1,1.23,6.07-.3q9.84-7.63,19.73-15.21C274.31,255.47,279,251.92,283.63,248.41ZM343,236.26l-1.35-1.71c4.92-.09,8.21-2.55,9.91-7.18l2.34,1.29,14.38-11.17c.91-.33,2.43-.48,3.38-1.28,3-2.48,5.6-5.32,8.57-7.78,1.51-1.26,4.37-1.62,5.05-3.07,2.09-4.46,6.47-6.15,10.12-8.5s7.44-3.93,8.88-8.25c.08-.24.37-.41,1-1.07-.11,1.61-.17,2.6-.28,4.44l16.34-15.61,1.79,1.57c1-2,1.94-3.91,3.09-6.21-3.05-2.91-7.11-2.36-11-1.14-4.44,1.41-8.55,4-13.06,5-7,1.51-12.78,4.37-17.36,9.86-2.42,2.9-5.31,5.85-8.65,7.53-4.65,2.32-9.88,3.61-14.94,5.09-5.67,1.66-10,4.49-12.05,10.22A60.59,60.59,0,0,1,343.87,220c-4.06,6.5-8.76,12.63-13,19-.79,1.19-.83,2.94-.87,4.44a4.3,4.3,0,0,0,2.87.65c1.6-.54,4-.69,3.22-3.58-.14-.54.85-1.68,1.59-2.07A57,57,0,0,1,343,236.26ZM150.89,392.08c2.47,1.62,4.21,2.77,6,3.9,1.37.88,3,2.65,4.1,2.38a6.45,6.45,0,0,0,3.83-3.54c3.23-8.16,6.33-16.38,9.12-24.69,3.47-10.33,6.57-20.77,9.88-31.16.9-2.82-.21-4.09-3.11-4.62-3.49-.64-5.31,1.19-6.58,3.79-6.43,13.12-12.87,26.23-19.13,39.42C152.68,382.39,149.54,387.11,150.89,392.08ZM190.83,92.9c-3.6-17.25-6.9-33.79-10.67-50.23-.54-2.33-3-4.64-5.22-6.1a8.9,8.9,0,0,0-10.1-.1c-3,2-1.45,5.11-.93,7.83a10.85,10.85,0,0,0,.34,1.06c2.88,8.92,5.71,17.86,8.65,26.76q3.84,11.59,7.91,23.13c1.23,3.5,2.85,4.2,6,2.27C188.46,96.52,189.46,94.54,190.83,92.9ZM37,289.3c8.72-2.77,16.76-4.94,24.49-7.86,11.59-4.38,23-9.29,34.45-14,3.77-1.54,4.38-3.59,2.19-7-1.55-2.36-3.65-2.81-6.28-2.15-7.51,1.88-15.09,3.52-22.54,5.63-9.21,2.6-18.38,5.39-27.41,8.53-2,.69-4.27,3-4.68,4.86C36.49,280.85,37,284.58,37,289.3Zm-.27-107.88c-2,1-4.38,1.52-5.79,3-1.58,1.61-2.26,4-3.33,6.11a3.85,3.85,0,0,0,2.69,5.75c10.17,1.54,20.33,3.09,30.51,4.49,8.45,1.17,16.93,2.14,25.4,3.17,2.37.29,4.4-.26,5.2-2.71a5.26,5.26,0,0,0-2.23-6.51,10.68,10.68,0,0,0-3.18-1.2c-10.16-2.75-20.31-5.59-30.52-8.15C49.5,183.84,43.37,182.79,36.76,181.42ZM281.24,49.6c-1.76-3.22-3.61-7.06-6-10.57-.51-.75-3.6-1-4.31-.27-2.07,2-4.17,4.39-5.11,7-2.75,7.68-5,15.53-7.32,23.35-2.49,8.43-4.82,16.9-7.2,25.36-.66,2.33-.11,4.3,2.35,5.17s5,.91,6.41-1.62c2.19-3.89,4.29-7.85,6.11-11.92,3.79-8.44,7.42-17,11-25.47C278.57,57.37,279.65,54,281.24,49.6Zm-158.9,85.45c-2.17-2.83-3.84-5.61-6.1-7.82C106.72,117.88,97,108.7,87.38,99.48a12.25,12.25,0,0,0-15.23-1.83c-3.25,1.83-4.2,5.84-1.46,8q21.69,17.22,43.69,34.09a4.53,4.53,0,0,0,4.14.3C120,139,120.87,137.08,122.34,135.05Z" transform="translate(-0.77 -0.74)"/><path class="cls-1" d="M283.63,248.41c-4.62,3.51-9.32,7.06-14,10.64q-9.88,7.59-19.73,15.21c-2,1.53-3.71,3.09-6.07.3-.52-.62-2.83-.64-3.66-.05-4.31,3-8.4,6.36-12.8,9.77,4.92,4.19,2.72,9.63,2.89,14.44.3,8.7-.37,17.44-.6,26.16a26.23,26.23,0,0,0,.26,4.43c.66,4.66.2,5.3-4.84,5.62-15,.95-29.85.13-44.32-4.09-4-1.16-7-.6-10.09,2-4.89,4.11-10.12,7.84-15.58,12L146.79,335c-3.46,1.64-6.66,3.09-9.8,4.69a2.86,2.86,0,0,0-1.52,1.82c-.42,8.62-5.4,14.37-12.44,18.87-.64.4-1.24.84-2,1.37l3.84,5.5L91.2,392.61,32.44,319.27a20.35,20.35,0,0,0,2.72-1.48Q53.58,303.95,72,290C81.65,282.68,91.3,275.27,101,268c1.57-1.18,2.36-2.1,1.42-4.26a118.35,118.35,0,0,1-9.6-53.19C94,183.16,104.34,159,122.68,138.72c22.27-24.64,50.81-38.38,84.94-40.16a173,173,0,0,1,17.92.32,4,4,0,0,1,2.77,2.38,84.17,84.17,0,0,1,2.06,9.35c.5,2.65,1.86,3.84,4.51,2.48,3.77-1.92,7.41-1.09,11.1.14,10.53,3.51,18.11,15.93,15.6,25.51-1.72,6.56-6.48,9.38-12.24,9.93-1.26,1.64-2,3.05-3.09,4-4.91,3.92-9.92,7.74-15,11.51-2,1.51-1.84,2.71.54,4.15,4.94-3.65,10-7.36,15-11.09,4.5-3.35,4.49-3.36,9,.48,2-1.47,4.25-2.87,6.23-4.54,2.42-2,4.28-2.24,6.1.71.68,1.11,2,1.87,3.67,3.4a19.49,19.49,0,0,0,.23-3.39c-1.46-8.89,1.66-16.11,8.85-21.53q38.44-29,77.05-57.82c11.13-8.33,24.46-6.81,33.15,3.84q15.42,18.87,30.58,38c7.8,9.84,6.22,23.27-3.73,30.81Q379,176.64,339.8,206c-7,5.26-14.56,6-22.7,3a30.7,30.7,0,0,0-3.47-.81l-.69.81a22.5,22.5,0,0,0,2.38,3.75c2,2.08,1.55,3.39-.69,5-9.82,7.27-19.51,14.7-29.25,22.07C280.76,243.32,280.76,243.32,283.63,248.41Zm-2.72-97.92c1.44,2.8,2.46,5.9,4.38,8.34,9.4,12,19.08,23.75,28.57,35.67,6.47,8.12,13.58,9.12,22,2.8q37.53-28.29,75-56.6c7.07-5.34,8.14-12.58,2.72-19.38q-15-18.75-30.08-37.34c-5.2-6.4-12.85-7.32-19.54-2.29q-38.5,28.89-76.91,57.9C283.53,142.25,281.65,145.73,280.91,150.49Zm-99.7,104.25,37.25-28,11.86,14.69-37.24,28.12,5.45,6.8,37.31-28c1.16,1.49,1.95,2.52,2.9,3.73L201.53,280.1l5.5,6.77L244.1,259l4.06,4.15,22-16.58c-1.12-1.61-2.1-3-3.3-4.72l37.11-28-5.55-6.73c-12.54,9.43-24.77,18.63-37.22,28-1.1-1.4-1.9-2.44-2.89-3.71l37.14-28.12-5.49-6.73-37.27,28-11.79-14.72L278,181.72l-5.45-6.79-96.91,73ZM107.58,360.3c4.73-3.58,9.15-6.89,13.53-10.26,5.18-4,6-9.93,2-14.93-2.86-3.63-5.78-7.22-8.68-10.81a9.94,9.94,0,0,0-9.71-3.92c-.92.13-1.86.11-3.23.19,2.06-4.31,3.64-8.18.21-12.1-2.89-3.28-5.45-6.84-8.38-10.09-4-4.42-9.34-5.35-14-1.95-11.11,8-22,16.39-33.22,24.82C61.83,340.8,77.38,360.1,93,379.53l18.53-14ZM158,248.59l-6-7.32c-20.4,15.36-40.64,30.62-61.1,46l6,7.38,35-26.26c10.55,13.11,20.94,25.89,31.15,38.81,2.69,3.41,1.88,7.75-1.58,10.61-3.18,2.62-6.53,5-10,7.73l5.15,6.36c9.17-7,18.14-13.89,27.11-20.78,6.91-5.3,7.72-11.52,2.3-18.32-7.55-9.47-15.17-18.88-22.76-28.32-3.25-4-6.51-8.07-9.85-12.23Zm.75,62c-1.36-2.79-2.09-5.21-3.54-7.11-5.62-7.32-11.42-14.52-17.25-21.7-4.46-5.49-8.72-6-14.42-1.85-5.18,3.79-10.27,7.69-15.38,11.57-6.61,5-7.08,8.44-1.93,14.87q8.07,10.09,16.26,20.1c4.48,5.48,10.22,6.35,16.09,2.2,5.34-3.78,10.6-7.71,15.62-11.88C156,315.21,157.13,312.78,158.7,310.58ZM114.79,202.25c.06,10.18,9.14,21.67,19.26,24.37,8.59,2.29,14.74-2.12,15-10.76.3-10.51-9.42-22.61-20-24.84C120.55,189.23,114.74,193.79,114.79,202.25ZM184.27,238l16.39-12.41-1.74-3.23,18.47-14c-1.72-2.08-3.19-3.86-4.74-5.72l-18.6,14-3.91-4.27-16.61,12.55,3.23,4.66-9.86,7.63,4.75,5.61,9.81-7.23Zm76.22-57.53-1.88-3.1,9.84-7.55-4.62-5.72-10,7.36-3.85-4.18-16.66,12.54,3.35,4.68L218,198.55l4.68,5.77,18.59-13.89,2.79,2.46Zm-91.07-7.28c-7.32-.7-9.72,1.1-8.58,6.93a22.86,22.86,0,0,0,14.06,17.25c5.07,2.19,7.91.14,8.26-5.33a5,5,0,0,1,.46-1.19l2.29,1.95,6.82-5.15L174.58,165l-6.83,5.16ZM208,139.94l18.14,22.59,7-5.41c-3.19-4-6.17-7.52-8.88-11.24-.69-.94-.52-2.47-.74-3.72,1.2.6,2.74.93,3.55,1.85,3.08,3.55,5.93,7.28,9,11.11l6.94-5.4c-4.9-6.14-9.33-12.18-14.37-17.69-1.43-1.57-4.71-2.39-7-2.19-3,.26-4.12,2.93-4,5.85,0,.28-.24.58-.44,1l-2.35-2Zm48-11.79c-2.18,1.94-4.17,3.58-6,5.39a16.67,16.67,0,0,0-2,3l-4.35-2.73,11.7-9.12c-3.68-2.65-6.56-5.3-9.95-7s-7.46-2-10.79.66-3.87,6.24-3.09,10.1A19.9,19.9,0,0,0,240,141.18c4.92,3.45,10.75,4.18,14.18,1.5,4.48-3.5,3.93-8.17,2.72-12.88A10.49,10.49,0,0,0,256,128.15ZM282,186.62l-9.68,7.2-2.67-2-15.15,11.45c2.09,5.88-4.84,5.56-5.77,9.2.58.77,1.23,1.67,1.93,2.53s1.58,1.83,2.36,2.73c7.67-5.13,7.67-5.13,10.18-3.83l14.38-10.84c.22-6.67,6.93-6.92,8.89-11Zm-92.11,79c2.62-2,4.92-3.57,7-5.39,1.79-1.57,3.41-2.33,5.1-.09l15.14-11.47c-1.85-5.74,5-5.25,6.13-9l-4.38-5.37-7.37,5.39c-1.51-.8-3.27-1.34-4.16-.71-4.75,3.3-9.28,6.9-14.12,10.58,2.13,2.17,1.11,3.5-1,4.86-2.43,1.53-4.61,3.43-7,5.27Zm-32.94-87.3-7,5.22L155,194.38l-.67.46-9.5-7.43-7,5.18,24.75,17.72,5.57-4.44Zm10.49-27.05,27.7,34.57,7.08-5.31-27.73-34.59Zm38.26,26.67,6.94-5.35c-3.25-4.11-6.31-7.9-9.26-11.77a5.66,5.66,0,0,1-1.19-2.85c-.1-1.54-4.54-9.06-5.71-8.71-3.16.93-3.48-1.77-4.88-3a28.38,28.38,0,0,1-2.74-3.3c-2.42,1.88-4.64,3.59-6.68,5.16,1.26,3.49,4.87,4.93,4.52,9.22-.18,2.28,3.25,6.5,5.56,6.88,3.33.54,4.21,2.57,5.77,4.34C200.63,171.51,203,174.67,205.68,177.92Zm11.19-8.41,7-5.42L205.8,141.54l-7.05,5.33Zm-14.35-31.09c0-3.87-3.84-7.83-7.45-7.73-2.82.08-4.07,1.74-4.17,4.3-.14,3.79,3.5,7.74,7.2,7.77C201.15,142.79,202.35,141,202.52,138.42Z" transform="translate(-0.77 -0.74)"/><path class="cls-1" d="M343,236.26a57,57,0,0,0-5.33,2.24c-.74.39-1.73,1.53-1.59,2.07.81,2.89-1.62,3-3.22,3.58a4.3,4.3,0,0,1-2.87-.65c0-1.5.08-3.25.87-4.44,4.24-6.41,8.94-12.54,13-19a60.59,60.59,0,0,0,5.33-11.77c2.06-5.73,6.38-8.56,12.05-10.22,5.06-1.48,10.29-2.77,14.94-5.09,3.34-1.68,6.23-4.63,8.65-7.53,4.58-5.49,10.34-8.35,17.36-9.86,4.51-1,8.62-3.55,13.06-5,3.86-1.22,7.92-1.77,11,1.14-1.15,2.3-2.09,4.19-3.09,6.21l-1.79-1.57L405,192c.11-1.84.17-2.83.28-4.44-.63.66-.92.83-1,1.07-1.44,4.32-5.31,6-8.88,8.25s-8,4-10.12,8.5c-.68,1.45-3.54,1.81-5.05,3.07-3,2.46-5.61,5.3-8.57,7.78-.95.8-2.47.95-3.38,1.28l-14.38,11.17-2.34-1.29c-1.7,4.63-5,7.09-9.91,7.18Zm13.7-32.39,0,1,17-2.09a3.64,3.64,0,0,0-3-.82C366.08,202.56,361.39,203.22,356.71,203.87Z" transform="translate(-0.77 -0.74)"/><path class="cls-1" d="M150.89,392.08c-1.35-5,1.79-9.69,4.08-14.52,6.26-13.19,12.7-26.3,19.13-39.42,1.27-2.6,3.09-4.43,6.58-3.79,2.9.53,4,1.8,3.11,4.62-3.31,10.39-6.41,20.83-9.88,31.16-2.79,8.31-5.89,16.53-9.12,24.69a6.45,6.45,0,0,1-3.83,3.54c-1.1.27-2.73-1.5-4.1-2.38C155.1,394.85,153.36,393.7,150.89,392.08Z" transform="translate(-0.77 -0.74)"/><path class="cls-1" d="M190.83,92.9c-1.37,1.64-2.37,3.62-4,4.62-3.16,1.93-4.78,1.23-6-2.27q-4.08-11.52-7.91-23.13c-2.94-8.9-5.77-17.84-8.65-26.76a10.85,10.85,0,0,1-.34-1.06c-.52-2.72-2.09-5.81.93-7.83a8.9,8.9,0,0,1,10.1.1c2.19,1.46,4.68,3.77,5.22,6.1C183.93,59.11,187.23,75.65,190.83,92.9Z" transform="translate(-0.77 -0.74)"/><path class="cls-1" d="M37,289.3c0-4.72-.54-8.45.22-11.91.41-1.9,2.71-4.17,4.68-4.86,9-3.14,18.2-5.93,27.41-8.53,7.45-2.11,15-3.75,22.54-5.63,2.63-.66,4.73-.21,6.28,2.15,2.19,3.36,1.58,5.41-2.19,7-11.48,4.68-22.86,9.59-34.45,14C53.79,284.36,45.75,286.53,37,289.3Z" transform="translate(-0.77 -0.74)"/><path class="cls-1" d="M36.76,181.42c6.61,1.37,12.74,2.42,18.75,3.92,10.21,2.56,20.36,5.4,30.52,8.15a10.68,10.68,0,0,1,3.18,1.2,5.26,5.26,0,0,1,2.23,6.51c-.8,2.45-2.83,3-5.2,2.71-8.47-1-16.95-2-25.4-3.17-10.18-1.4-20.34-3-30.51-4.49a3.85,3.85,0,0,1-2.69-5.75c1.07-2.08,1.75-4.5,3.33-6.11C32.38,182.94,34.77,182.38,36.76,181.42Z" transform="translate(-0.77 -0.74)"/><path class="cls-1" d="M281.24,49.6c-1.59,4.38-2.67,7.77-4,11-3.59,8.52-7.22,17-11,25.47-1.82,4.07-3.92,8-6.11,11.92-1.43,2.53-4,2.48-6.41,1.62s-3-2.84-2.35-5.17c2.38-8.46,4.71-16.93,7.2-25.36,2.3-7.82,4.57-15.67,7.32-23.35.94-2.62,3-5,5.11-7,.71-.69,3.8-.48,4.31.27C277.63,42.54,279.48,46.38,281.24,49.6Z" transform="translate(-0.77 -0.74)"/><path class="cls-1" d="M122.34,135.05c-1.47,2-2.33,3.94-3.82,5a4.53,4.53,0,0,1-4.14-.3q-22-16.89-43.69-34.09c-2.74-2.17-1.79-6.18,1.46-8a12.25,12.25,0,0,1,15.23,1.83c9.65,9.22,19.34,18.4,28.86,27.75C118.5,129.44,120.17,132.22,122.34,135.05Z" transform="translate(-0.77 -0.74)"/><path d="M280.91,150.49c.74-4.76,2.62-8.24,6.15-10.9q38.44-29,76.91-57.9c6.69-5,14.34-4.11,19.54,2.29q15.14,18.6,30.08,37.34c5.42,6.8,4.35,14-2.72,19.38q-37.51,28.32-75,56.6c-8.39,6.32-15.5,5.32-22-2.8-9.49-11.92-19.17-23.69-28.57-35.67C283.37,156.39,282.35,153.29,280.91,150.49ZM321.72,127c-3.81,2.94-7.54,5.5-10.88,8.49a7.51,7.51,0,0,0-1.43,9.87c2.39,3.59,5.27,6.87,8.1,10.5L334.6,143Zm59.35-3L364,136.91l12.86,15.93c3.56-2.68,6.85-5,9.95-7.52,3.79-3.1,4.66-7.46,2.09-11.23C386.6,130.73,383.9,127.63,381.07,124ZM325.6,165.83c2.82,3.46,5.24,6.76,8,9.74a8.69,8.69,0,0,0,10.8,1.54c3.78-2.43,7.27-5.26,11.15-8.12l-13-16ZM373,114.07c-2.22-2.77-4.15-5.2-6.1-7.62a22.3,22.3,0,0,0-2-2.26,8.89,8.89,0,0,0-11.2-1.15c-3.55,2.36-6.86,5.06-10.62,7.87l12.86,16Z" transform="translate(-0.77 -0.74)"/><path d="M181.21,254.74,175.68,248l96.91-73,5.45,6.79-37.16,28.13,11.79,14.72,37.27-28,5.49,6.73L258.29,231.4c1,1.27,1.79,2.31,2.89,3.71,12.45-9.38,24.68-18.58,37.22-28l5.55,6.73-37.11,28c1.2,1.7,2.18,3.11,3.3,4.72l-22,16.58L244.1,259,207,286.87l-5.5-6.77,37.21-28.05c-1-1.21-1.74-2.24-2.9-3.73l-37.31,28-5.45-6.8,37.24-28.12-11.86-14.69Z" transform="translate(-0.77 -0.74)"/><path d="M107.58,360.3l4,5.24L93,379.53C77.38,360.1,61.83,340.8,46.1,321.25c11.24-8.43,22.11-16.78,33.22-24.82,4.69-3.4,10-2.47,14,1.95,2.93,3.25,5.49,6.81,8.38,10.09,3.43,3.92,1.85,7.79-.21,12.1,1.37-.08,2.31-.06,3.23-.19a9.94,9.94,0,0,1,9.71,3.92c2.9,3.59,5.82,7.18,8.68,10.81,4,5,3.15,10.94-2,14.93C116.73,353.41,112.31,356.72,107.58,360.3Zm-18-22.21,13.91,17.26c2.89-2.75,3-5.21,1.07-7.72-2.39-3.17-5-6.22-7.39-9.35C94.92,335.42,92.55,335.15,89.56,338.09ZM69.09,312.65l13.29,16.53c3.08-2.43,3.22-4.81,1.2-7.35-2.41-3-5-5.95-7.33-9C74.05,310,71.84,309.89,69.09,312.65Z" transform="translate(-0.77 -0.74)"/><path d="M158,248.59l-4.52,3.7c3.34,4.16,6.6,8.19,9.85,12.23,7.59,9.44,15.21,18.85,22.76,28.32,5.42,6.8,4.61,13-2.3,18.32-9,6.89-17.94,13.76-27.11,20.78l-5.15-6.36c3.49-2.68,6.84-5.11,10-7.73,3.46-2.86,4.27-7.2,1.58-10.61-10.21-12.92-20.6-25.7-31.15-38.81l-35,26.26-6-7.38c20.46-15.42,40.7-30.68,61.1-46Z" transform="translate(-0.77 -0.74)"/><path d="M158.7,310.58c-1.57,2.2-2.68,4.63-4.55,6.2-5,4.17-10.28,8.1-15.62,11.88-5.87,4.15-11.61,3.28-16.09-2.2q-8.18-10-16.26-20.1c-5.15-6.43-4.68-9.85,1.93-14.87,5.11-3.88,10.2-7.78,15.38-11.57,5.7-4.17,10-3.64,14.42,1.85,5.83,7.18,11.63,14.38,17.25,21.7C156.61,305.37,157.34,307.79,158.7,310.58Zm-34.16-18.89-5.88,4.44,17.41,21.54,5.9-4.41Z" transform="translate(-0.77 -0.74)"/><path d="M114.79,202.25c-.05-8.46,5.76-13,14.29-11.23,10.54,2.23,20.26,14.33,20,24.84-.25,8.64-6.4,13-15,10.76C123.93,223.92,114.85,212.43,114.79,202.25Zm10.73,4.21c0,3.41,3.38,7.64,7,8.9,3.4,1.17,6.28-.93,5.78-4.41a10.6,10.6,0,0,0-6.95-8.57C128.18,201.09,125.49,203.09,125.52,206.46Z" transform="translate(-0.77 -0.74)"/><path d="M184.27,238l-2.81-2.45-9.81,7.23-4.75-5.61,9.86-7.63-3.23-4.66,16.61-12.55,3.91,4.27,18.6-14c1.55,1.86,3,3.64,4.74,5.72l-18.47,14,1.74,3.23Z" transform="translate(-0.77 -0.74)"/><path d="M260.49,180.43l-16.43,12.46-2.79-2.46-18.59,13.89L218,198.55l18.62-14.09-3.35-4.68,16.66-12.54,3.85,4.18,10-7.36,4.62,5.72-9.84,7.55Z" transform="translate(-0.77 -0.74)"/><path d="M169.42,173.15l-1.67-3,6.83-5.16,18.15,22.61-6.82,5.15-2.29-1.95a5,5,0,0,0-.46,1.19c-.35,5.47-3.19,7.52-8.26,5.33a22.86,22.86,0,0,1-14.06-17.25C159.7,174.25,162.1,172.45,169.42,173.15Zm9.86,11.57c-2.09-2.05-3.66-3.65-5.38-5.08a11.35,11.35,0,0,0-2.18,2,33.94,33.94,0,0,0,4.38,4.9C176.29,186.74,177.7,185.66,179.28,184.72Z" transform="translate(-0.77 -0.74)"/><path d="M208,139.94l6.8-5.19,2.35,2c.2-.45.45-.75.44-1-.11-2.92,1-5.59,4-5.85,2.3-.2,5.58.62,7,2.19,5,5.51,9.47,11.55,14.37,17.69l-6.94,5.4c-3.07-3.83-5.92-7.56-9-11.11-.81-.92-2.35-1.25-3.55-1.85.22,1.25,0,2.78.74,3.72,2.71,3.72,5.69,7.25,8.88,11.24l-7,5.41Z" transform="translate(-0.77 -0.74)"/><path d="M256,128.15a10.49,10.49,0,0,1,.89,1.65c1.21,4.71,1.76,9.38-2.72,12.88-3.43,2.68-9.26,1.95-14.18-1.5a19.9,19.9,0,0,1-8.42-12.74c-.78-3.86-.16-7.46,3.09-10.1s7.34-2.4,10.79-.66,6.27,4.36,9.95,7l-11.7,9.12,4.35,2.73a16.67,16.67,0,0,1,2-3C251.87,131.73,253.86,130.09,256,128.15Zm-11.1-2a46.61,46.61,0,0,0-4.6-2.61c-.29-.12-1.58.9-1.52,1.25a42.38,42.38,0,0,0,1.5,5Z" transform="translate(-0.77 -0.74)"/><path d="M282,186.62l4.47,5.47c-2,4.09-8.67,4.34-8.89,11l-14.38,10.84c-2.51-1.3-2.51-1.3-10.18,3.83-.78-.9-1.59-1.8-2.36-2.73s-1.35-1.76-1.93-2.53c.93-3.64,7.86-3.32,5.77-9.2l15.15-11.45,2.67,2Z" transform="translate(-0.77 -0.74)"/><path d="M189.87,265.6l-4.73-6c2.4-1.84,4.58-3.74,7-5.27,2.16-1.36,3.18-2.69,1-4.86,4.84-3.68,9.37-7.28,14.12-10.58.89-.63,2.65-.09,4.16.71l7.37-5.39,4.38,5.37c-1.09,3.77-8,3.28-6.13,9L202,260.12c-1.69-2.24-3.31-1.48-5.1.09C194.79,262,192.49,263.6,189.87,265.6Z" transform="translate(-0.77 -0.74)"/><path d="M156.93,178.3l11.27,27.57-5.57,4.44-24.75-17.72,7-5.18,9.5,7.43.67-.46-5.07-10.86Z" transform="translate(-0.77 -0.74)"/><path d="M167.42,151.25l7.05-5.33,27.73,34.59-7.08,5.31Z" transform="translate(-0.77 -0.74)"/><path d="M205.68,177.92c-2.64-3.25-5.05-6.41-7.67-9.4-1.56-1.77-2.44-3.8-5.77-4.34-2.31-.38-5.74-4.6-5.56-6.88.35-4.29-3.26-5.73-4.52-9.22,2-1.57,4.26-3.28,6.68-5.16a28.38,28.38,0,0,0,2.74,3.3c1.4,1.25,1.72,3.95,4.88,3,1.17-.35,5.61,7.17,5.71,8.71a5.66,5.66,0,0,0,1.19,2.85c2.95,3.87,6,7.66,9.26,11.77Z" transform="translate(-0.77 -0.74)"/><path d="M216.87,169.51l-18.12-22.64,7.05-5.33,18.08,22.55Z" transform="translate(-0.77 -0.74)"/><path d="M202.52,138.42c-.17,2.56-1.37,4.37-4.42,4.34-3.7,0-7.34-4-7.2-7.77.1-2.56,1.35-4.22,4.17-4.3C198.68,130.59,202.52,134.55,202.52,138.42Z" transform="translate(-0.77 -0.74)"/><path d="M356.71,203.87c4.68-.65,9.37-1.31,14.06-1.91a3.64,3.64,0,0,1,3,.82l-17,2.09Z" transform="translate(-0.77 -0.74)"/><path class="cls-1" d="M321.72,127l12.88,16-17.09,12.85c-2.83-3.63-5.71-6.91-8.1-10.5a7.51,7.51,0,0,1,1.43-9.87C314.18,132.49,317.91,129.93,321.72,127Z" transform="translate(-0.77 -0.74)"/><path class="cls-1" d="M381.07,124c2.83,3.61,5.53,6.71,7.83,10.07,2.57,3.77,1.7,8.13-2.09,11.23-3.1,2.53-6.39,4.84-9.95,7.52L364,136.91Z" transform="translate(-0.77 -0.74)"/><path class="cls-1" d="M325.6,165.83l17-12.81,13,16c-3.88,2.86-7.37,5.69-11.15,8.12a8.69,8.69,0,0,1-10.8-1.54C330.84,172.59,328.42,169.29,325.6,165.83Z" transform="translate(-0.77 -0.74)"/><path class="cls-1" d="M373,114.07l-17,12.82-12.86-16c3.76-2.81,7.07-5.51,10.62-7.87a8.89,8.89,0,0,1,11.2,1.15,22.3,22.3,0,0,1,2,2.26C368.83,108.87,370.76,111.3,373,114.07Z" transform="translate(-0.77 -0.74)"/><path class="cls-1" d="M89.56,338.09c3-2.94,5.36-2.67,7.59.19,2.44,3.13,5,6.18,7.39,9.35,1.9,2.51,1.82,5-1.07,7.72Z" transform="translate(-0.77 -0.74)"/><path class="cls-1" d="M69.09,312.65c2.75-2.76,5-2.67,7.16.18,2.36,3.05,4.92,6,7.33,9,2,2.54,1.88,4.92-1.2,7.35Z" transform="translate(-0.77 -0.74)"/><path class="cls-1" d="M124.54,291.69,142,313.26l-5.9,4.41-17.41-21.54Z" transform="translate(-0.77 -0.74)"/><path class="cls-1" d="M125.52,206.46c0-3.37,2.66-5.37,5.85-4.08a10.6,10.6,0,0,1,6.95,8.57c.5,3.48-2.38,5.58-5.78,4.41C128.9,214.1,125.56,209.87,125.52,206.46Z" transform="translate(-0.77 -0.74)"/><path class="cls-1" d="M179.28,184.72c-1.58.94-3,2-3.18,1.85a33.94,33.94,0,0,1-4.38-4.9,11.35,11.35,0,0,1,2.18-2C175.62,181.07,177.19,182.67,179.28,184.72Z" transform="translate(-0.77 -0.74)"/><path class="cls-1" d="M244.94,126.15l-4.62,3.59a42.38,42.38,0,0,1-1.5-5c-.06-.35,1.23-1.37,1.52-1.25A46.61,46.61,0,0,1,244.94,126.15Z" transform="translate(-0.77 -0.74)"/></svg>